<svg xmlns="http://www.w3.org/2000/svg" width="200" height="200" viewBox="0 0 24 24">
  <!-- Background Circle -->
  <circle cx="12" cy="12" r="12" fill="#47A248"/>
  
  <!-- MongoDB Leaf -->
  <path fill="#FFFFFF" d="M12.38 3.09a.201.201 0 0 0-.38 0c-.33.92-.97 2.74-1.25 3.52-.34.99-.71 2.04-.9 3.09-.23 1.26-.18 2.54.16 3.79.36 1.32 1.04 2.6 2.02 3.6.2.2.44.35.67.5.02.02.05.03.07.05V3.09h.01Zm0 16.81c.43-.27.85-.56 1.21-.92a7.272 7.272 0 0 0 1.79-3.04 8.156 8.156 0 0 0 .16-4.09c-.16-.99-.52-1.94-.87-2.87-.3-.83-.7-2.07-1.03-2.98-.03-.09-.06-.17-.09-.25v14.14h-.17Z"/>
</svg>
