<svg
  width="200"
  height="200"
  viewBox="0 0 200 200"
  fill="none"
  xmlns="http://www.w3.org/2000/svg"
>
  <!-- Gradient Definition -->
  <defs>
    <linearGradient id="bubbleGradient" x1="0" y1="0" x2="1" y2="1">
      <stop offset="0%" stop-color="#00C9FF"/>
      <stop offset="100%" stop-color="#B721FF"/>
    </linearGradient>
  </defs>

  <!-- Outer chat bubble -->
  <path
    d="M100 20C55.8 20 20 50.1 20 88C20 110.9 34.5 130.6 55.6 142L50 175L84 157.6C89.1 158.6 94.5 159 100 159C144.2 159 180 128.9 180 91C180 50.1 144.2 20 100 20Z"
    fill="url(#bubbleGradient)"
    stroke="#4A148C"
    stroke-width="5"
    stroke-linejoin="round"
  />

  <!-- Pie chart container -->
  <circle cx="100" cy="100" r="38" fill="white" stroke="#2E2E2E" stroke-width="3"/>

  <!-- Pie chart sections -->
  <path d="M100 100L130 110A30 30 0 0 0 100 70Z" fill="#FF4081"/>
  <path d="M100 100L100 70A30 30 0 0 1 130 110Z" fill="#FFEA00"/>
  <path d="M100 100L110 130A30 30 0 0 1 70 110Z" fill="#00E676"/>
  <path d="M100 100L70 110A30 30 0 0 1 100 70Z" fill="#00B0FF"/>

</svg>
