<svg xmlns="http://www.w3.org/2000/svg" width="200" height="200" viewBox="0 0 24 24">
  <!-- Background Circle -->
  <circle cx="12" cy="12" r="12" fill="#8CC84B"/>

  <!-- Node.js Hexagon -->
  <path fill="#ffffff" d="M12 2C6.48 2 2 6.48 2 12s4.48 10 10 10 10-4.48 10-10S17.52 2 12 2zm0 18c-4.41 0-8-3.59-8-8s3.59-8 8-8 8 3.59 8 8-3.59 8-8 8zm0-14c-.53 0-1.03.21-1.41.59l-1.17 1.17-1.17-1.17a2 2 0 0 0-2.83 2.83l2.83 2.83-2.83 2.83a2 2 0 0 0 2.83 2.83l1.17-1.17 1.17 1.17a2 2 0 0 0 2.83-2.83l-2.83-2.83 2.83-2.83a2 2 0 0 0-2.83-2.83l-1.17 1.17-1.17-1.17a2 2 0 0 0-1.42-.59z"/>
</svg>
