<svg xmlns="http://www.w3.org/2000/svg" width="200" height="200" viewBox="0 0 24 24">
  <!-- Background Circle -->
  <circle cx="12" cy="12" r="12" fill="#306998"/>
  
  <!-- Upper Part (Yellow) -->
  <path fill="white" d="M12 2C8.13 2 6 4.27 6 7.88V9h6v1H5.5C3.01 10 2 11.41 2 13.87v2.25C2 18.41 3.01 20 5.5 20H8v-1c0-3 2.48-5 5-5h3c2.21 0 3-1.11 3-3V7.88C19 5.41 17.66 4 15.5 4H12z"/>
  
  <!-- Lower Part (Blue) -->
  <path fill="#FFD43B" d="M19 5v1c0 3-2.48 5-5 5h-3c-2.21 0-3 1.11-3 3v3c0 2.21 1.34 3 3 3h4v-1c0-4.31 2.48-5 5-5h3c2.21 0 3-1.11 3-3V7.88C19 5.41 17.66 4 15.5 4H12z"/>
  
  <!-- Eyes -->
  <circle cx="9" cy="6" r="1" fill="#306998"/>
  <circle cx="15" cy="18" r="1" fill="#306998"/>
</svg>


