<svg xmlns="http://www.w3.org/2000/svg" width="200" height="200" viewBox="0 0 24 24">
  <!-- Background Circle -->
  <circle cx="12" cy="12" r="12" fill="#38BDF8"/>
  
  <!-- Tailwind CSS "T" and "W" -->
  <path fill="white" d="M10.7 7.3c-.4-.4-.7-.7-.7-1.3V5.7h2.7v2.7h-2.3c-.1-.6-.4-.9-.7-1.1zm3.4 1.7h-2.7V5.7h2.7c.5 0 .8.3.8.8s-.3.8-.8.8zM12 12.2c-.4-.3-.6-.5-.8-.9V9.8h2.7V12h-2.3c.1-.4-.2-.7-.4-.8zM13.4 15h-2.7V13h2.7c.5 0 .8.3.8.8s-.3.8-.8.8zM10.7 14.7c.4.4.7.7.7 1.3v1.3h-2.7v-2.7h2.3c.1.6.4.9.7 1.1z"/>
</svg>
